<?xml version="1.0" encoding="UTF-8" standalone="no"?>
<!-- Created with Inkscape (http://www.inkscape.org/) -->

<svg
   xmlns:dc="http://purl.org/dc/elements/1.1/"
   xmlns:cc="http://creativecommons.org/ns#"
   xmlns:rdf="http://www.w3.org/1999/02/22-rdf-syntax-ns#"
   xmlns:svg="http://www.w3.org/2000/svg"
   xmlns="http://www.w3.org/2000/svg"
   xmlns:sodipodi="http://sodipodi.sourceforge.net/DTD/sodipodi-0.dtd"
   xmlns:inkscape="http://www.inkscape.org/namespaces/inkscape"
   width="102.5"
   height="11.25"
   id="svg2"
   version="1.1"
   inkscape:version="0.48.2 r9819"
   sodipodi:docname="pronounce.svg">
  <title
     id="title5284">Pronounce Linterna Mágica in IPA</title>
  <defs
     id="defs4" />
  <sodipodi:namedview
     id="base"
     pagecolor="#ffffff"
     bordercolor="#666666"
     borderopacity="1.0"
     inkscape:pageopacity="0.0"
     inkscape:pageshadow="2"
     inkscape:zoom="7.9195959"
     inkscape:cx="27.935005"
     inkscape:cy="28.537976"
     inkscape:document-units="px"
     inkscape:current-layer="g3030"
     showgrid="false"
     units="pt"
     inkscape:window-width="1280"
     inkscape:window-height="949"
     inkscape:window-x="0"
     inkscape:window-y="25"
     inkscape:window-maximized="1" />
  <metadata
     id="metadata7">
    <rdf:RDF>
      <cc:Work
         rdf:about="">
        <dc:format>image/svg+xml</dc:format>
        <dc:type
           rdf:resource="http://purl.org/dc/dcmitype/StillImage" />
        <dc:title>Pronounce Linterna Mágica in IPA</dc:title>
        <cc:license
           rdf:resource="http://www.gnu.org/licenses/gpl.html http://www.gnu.org/licenses/gfdl.html" />
        <dc:creator>
          <cc:Agent>
            <dc:title>Ivaylo Valkov &lt;ivaylo@e-valkov.org&gt;</dc:title>
          </cc:Agent>
        </dc:creator>
        <dc:rights>
          <cc:Agent>
            <dc:title>Ivaylo Valkov &lt;ivaylo@e-valkov.org&gt;</dc:title>
          </cc:Agent>
        </dc:rights>
        <dc:description>This SVG file is part of  Linterna Mágica

Copyright (C) 2011, 2012 Ivaylo Valkov &lt;ivaylo@e-valkov.org&gt;

Linterna Mágica is free software: you can redistribute it and/or modify
it under the terms of the GNU General Public License as published by
the Free Software Foundation, either version 3 of the License, or
(at your option) any later version.

Linterna Mágica is distributed in the hope that it will be useful,
but WITHOUT ANY WARRANTY; without even the implied warranty of
MERCHANTABILITY or FITNESS FOR A PARTICULAR PURPOSE.  See the
GNU General Public License for more details.

Permission is granted to copy, distribute and/or modify this SVG
file under the terms of either:

   * the GNU General Public License as published by the Free Software
     Foundation; either version 3 of the License, or (at your option) any
     later version, or

   * the GNU Free Documentation License, Version 1.3 or any later version
     published by the Free Software Foundation; with no Invariant Sections,
     no Front-Cover Texts, and no Back-Cover Texts.

You should have received a copy of the GNU General Public License and
the GNU Free Documentation License along with Linterna Mágica.  If
not, see &lt;http://www.gnu.org/licenses/&gt;.

Linterna Mágica home page: &lt;http://linterna-magica.nongnu.org&gt;</dc:description>
      </cc:Work>
    </rdf:RDF>
  </metadata>
  <g
     inkscape:label="Layer 1"
     inkscape:groupmode="layer"
     id="layer1"
     transform="translate(0,-1041.1122)">
    <text
       xml:space="preserve"
       style="font-size:40px;font-style:normal;font-weight:normal;line-height:125%;letter-spacing:0px;word-spacing:0px;fill:#000000;fill-opacity:1;stroke:none;font-family:Bitstream Vera Sans"
       x="10.732871"
       y="-1.023481"
       id="text2985"
       sodipodi:linespacing="125%"
       transform="translate(0,1038.6122)"><tspan
         sodipodi:role="line"
         id="tspan2987"
         x="10.732871"
         y="-1.023481" /></text>
    <g
       style="font-size:40px;font-style:normal;font-weight:normal;line-height:125%;letter-spacing:0px;word-spacing:0px;fill:#000000;fill-opacity:1;stroke:none;font-family:Bitstream Vera Sans"
       id="text2989"
       transform="translate(0.75761443,-7.449875)">
      <g
         id="g3030"
         transform="translate(-4.6719555,30.178307)">
        <path
           inkscape:connector-curvature="0"
           id="path2994"
           style="font-size:11px"
           d="m 7.8437334,1019.847 0.913086,0 -2.7929688,9.0395 -0.9130859,0 2.7929687,-9.0395" />
        <path
           inkscape:connector-curvature="0"
           id="path2996"
           style="font-size:11px"
           d="m 9.8041829,1019.5086 0.9882811,0 0,8.3574 -0.9882811,0 0,-8.3574" />
        <path
           inkscape:connector-curvature="0"
           id="path2998"
           style="font-size:11px"
           d="m 12.854964,1021.8504 0.988281,0 0,6.0156 -0.988281,0 0,-6.0156 m 0,-2.3418 0.988281,0 0,1.2515 -0.988281,0 0,-1.2515" />
        <path
           inkscape:connector-curvature="0"
           id="path3000"
           style="font-size:11px"
           d="m 20.906234,1024.2352 0,3.6308 -0.988282,0 0,-3.5986 c -5e-6,-0.5693 -0.111007,-0.9954 -0.333008,-1.2783 -0.222009,-0.2829 -0.555017,-0.4243 -0.999023,-0.4243 -0.533532,0 -0.954267,0.1701 -1.262207,0.5102 -0.307945,0.3402 -0.461916,0.8039 -0.461914,1.3911 l 0,3.3999 -0.993652,0 0,-6.0156 0.993652,0 0,0.9346 c 0.236326,-0.3617 0.513832,-0.632 0.832519,-0.8111 0.322263,-0.179 0.692868,-0.2685 1.111817,-0.2685 0.691076,0 1.213862,0.2148 1.568359,0.6445 0.354487,0.4261 0.531732,1.0546 0.531739,1.8853" />
        <path
           inkscape:connector-curvature="0"
           id="path3002"
           style="font-size:11px"
           d="m 23.865706,1020.1424 0,1.708 2.035645,0 0,0.7681 -2.035645,0 0,3.2656 c -2e-6,0.4906 0.06624,0.8057 0.198731,0.9453 0.136065,0.1397 0.409991,0.2095 0.821777,0.2095 l 1.015137,0 0,0.8271 -1.015137,0 c -0.762698,0 -1.289064,-0.1414 -1.579102,-0.4243 -0.29004,-0.2864 -0.435059,-0.8056 -0.435058,-1.5576 l 0,-3.2656 -0.725098,0 0,-0.7681 0.725098,0 0,-1.708 0.993652,0" />
        <path
           inkscape:connector-curvature="0"
           id="path3004"
           style="font-size:11px"
           d="m 28.049788,1019.5194 0,2.9809 -0.730469,0 0,-2.9809 0.730469,0" />
        <path
           inkscape:connector-curvature="0"
           id="path3006"
           style="font-size:11px"
           d="m 31.320784,1024.6219 c -0.401043,-0.086 -0.708985,-0.2453 -0.923828,-0.478 -0.214845,-0.2292 -0.322266,-0.5103 -0.322265,-0.8433 -1e-6,-0.5049 0.2041,-0.8988 0.612304,-1.1816 0.404621,-0.2793 0.957843,-0.419 1.659668,-0.419 0.272132,0 0.560381,0.022 0.864746,0.064 0.304358,0.043 0.631994,0.1074 0.98291,0.1933 l 0,0.897 c -0.347335,-0.1038 -0.664229,-0.179 -0.950683,-0.2256 -0.290043,-0.047 -0.562178,-0.07 -0.816406,-0.07 -0.42611,0 -0.762698,0.082 -1.009766,0.2471 -0.250653,0.1647 -0.375978,0.3616 -0.375977,0.5908 -1e-6,0.2506 0.121743,0.4565 0.365235,0.6177 0.239906,0.1575 0.567543,0.2363 0.98291,0.2363 l 0.832519,0 0,0.8164 -0.794921,0 c -0.490563,0 -0.864749,0.091 -1.122559,0.2739 -0.279299,0.2005 -0.418947,0.4584 -0.418945,0.7735 -2e-6,0.3222 0.150388,0.5836 0.451172,0.7841 0.304359,0.2006 0.726885,0.3008 1.267578,0.3008 0.333004,0 0.651688,-0.032 0.956054,-0.097 0.304358,-0.068 0.583654,-0.1683 0.837891,-0.3007 l 0,0.9184 c -0.32227,0.1003 -0.633794,0.1755 -0.93457,0.2256 -0.304366,0.05 -0.599776,0.075 -0.886231,0.075 -0.852216,0 -1.509279,-0.1629 -1.971191,-0.4888 -0.461915,-0.3258 -0.692872,-0.7985 -0.692871,-1.4179 -10e-7,-0.3868 0.123534,-0.7108 0.370605,-0.9722 0.247069,-0.2614 0.592609,-0.4351 1.036621,-0.521" />
        <path
           inkscape:connector-curvature="0"
           id="path3008"
           style="font-size:11px"
           d="m 39.672835,1022.7742 c -0.111007,-0.064 -0.232752,-0.111 -0.365234,-0.1396 -0.128911,-0.032 -0.27214,-0.048 -0.429688,-0.048 -0.558597,10e-5 -0.988284,0.1827 -1.289062,0.5479 -0.297203,0.3617 -0.445803,0.8827 -0.445801,1.563 l 0,3.1689 -0.993652,0 0,-6.0156 0.993652,0 0,0.9346 c 0.20768,-0.3652 0.478025,-0.6356 0.811035,-0.8111 0.333005,-0.179 0.737627,-0.2685 1.213867,-0.2685 0.06803,0 0.143225,0.01 0.225586,0.016 0.08235,0.01 0.173661,0.02 0.273926,0.038 l 0.0054,1.0151" />
        <path
           inkscape:connector-curvature="0"
           id="path3010"
           style="font-size:11px"
           d="m 45.527327,1024.2352 0,3.6308 -0.988281,0 0,-3.5986 c -5e-6,-0.5693 -0.111008,-0.9954 -0.333008,-1.2783 -0.222009,-0.2829 -0.555017,-0.4243 -0.999023,-0.4243 -0.533532,0 -0.954267,0.1701 -1.262207,0.5102 -0.307945,0.3402 -0.461916,0.8039 -0.461914,1.3911 l 0,3.3999 -0.993653,0 0,-6.0156 0.993653,0 0,0.9346 c 0.236326,-0.3617 0.513832,-0.632 0.832519,-0.8111 0.322263,-0.179 0.692868,-0.2685 1.111817,-0.2685 0.691076,0 1.213862,0.2148 1.568359,0.6445 0.354486,0.4261 0.531732,1.0546 0.531738,1.8853" />
        <path
           inkscape:connector-curvature="0"
           id="path3012"
           style="font-size:11px"
           d="m 50.243148,1024.8421 c -0.798506,0 -1.351728,0.091 -1.659668,0.2739 -0.307945,0.1827 -0.461916,0.4942 -0.461914,0.9346 -2e-6,0.3509 0.114581,0.6302 0.34375,0.8379 0.232745,0.2041 0.547849,0.3061 0.945312,0.3061 0.547848,0 0.986487,-0.1933 1.315918,-0.58 0.333003,-0.3903 0.499507,-0.9077 0.499512,-1.5523 l 0,-0.2202 -0.98291,0 m 1.971191,-0.4082 0,3.4321 -0.988281,0 0,-0.9131 c -0.225591,0.3653 -0.506678,0.6356 -0.843262,0.8111 -0.336592,0.1719 -0.748376,0.2578 -1.235352,0.2578 -0.615887,0 -1.106446,-0.1719 -1.471679,-0.5156 -0.361655,-0.3474 -0.542481,-0.8111 -0.542481,-1.3911 0,-0.6768 0.225585,-1.1871 0.676758,-1.5308 0.454751,-0.3437 1.131508,-0.5156 2.030274,-0.5156 l 1.385742,0 0,-0.097 c -5e-6,-0.4548 -0.150395,-0.8057 -0.451172,-1.0527 -0.297205,-0.2507 -0.71615,-0.376 -1.256836,-0.376 -0.343753,0 -0.678551,0.041 -1.004395,0.1235 -0.325848,0.082 -0.639161,0.2059 -0.939941,0.3706 l 0,-0.9131 c 0.361652,-0.1396 0.712563,-0.2434 1.052734,-0.3115 0.340167,-0.072 0.671384,-0.1074 0.993653,-0.1074 0.870113,0 1.520015,0.2256 1.949707,0.6767 0.429682,0.4512 0.644525,1.1351 0.644531,2.0518" />
        <path
           inkscape:connector-curvature="0"
           id="path3014"
           style="font-size:11px"
           d="m 62.440901,1023.0052 c 0.247065,-0.444 0.542475,-0.7716 0.886231,-0.9829 0.343743,-0.2113 0.748365,-0.3169 1.213867,-0.3169 0.626619,0 1.110017,0.2202 1.450195,0.6606 0.34016,0.4369 0.510245,1.0599 0.510254,1.8692 l 0,3.6308 -0.993652,0 0,-3.5986 c -9e-6,-0.5765 -0.102059,-1.0044 -0.306152,-1.2837 -0.20411,-0.2793 -0.515633,-0.4189 -0.934571,-0.4189 -0.512051,0 -0.916673,0.1701 -1.213867,0.5102 -0.297206,0.3402 -0.445806,0.8039 -0.445801,1.3911 l 0,3.3999 -0.993652,0 0,-3.5986 c -5e-6,-0.5801 -0.102056,-1.008 -0.306152,-1.2837 -0.204106,-0.2793 -0.51921,-0.4189 -0.945313,-0.4189 -0.504886,0 -0.905927,0.1718 -1.203125,0.5156 -0.297202,0.3402 -0.445803,0.8021 -0.445801,1.3857 l 0,3.3999 -0.993652,0 0,-6.0156 0.993652,0 0,0.9346 c 0.225584,-0.3688 0.495929,-0.641 0.811036,-0.8164 0.315101,-0.1755 0.689286,-0.2632 1.122558,-0.2632 0.436845,0 0.80745,0.111 1.111817,0.333 0.307937,0.222 0.535313,0.5443 0.682128,0.9668" />
        <path
           inkscape:connector-curvature="0"
           id="path3016"
           style="font-size:11px"
           d="m 71.211898,1024.8421 c -0.798506,0 -1.351728,0.091 -1.659668,0.2739 -0.307945,0.1827 -0.461916,0.4942 -0.461914,0.9346 -2e-6,0.3509 0.114581,0.6302 0.34375,0.8379 0.232745,0.2041 0.547849,0.3061 0.945312,0.3061 0.547848,0 0.986487,-0.1933 1.315918,-0.58 0.333003,-0.3903 0.499507,-0.9077 0.499512,-1.5523 l 0,-0.2202 -0.98291,0 m 1.971191,-0.4082 0,3.4321 -0.988281,0 0,-0.9131 c -0.225591,0.3653 -0.506678,0.6356 -0.843262,0.8111 -0.336592,0.1719 -0.748376,0.2578 -1.235352,0.2578 -0.615887,0 -1.106446,-0.1719 -1.471679,-0.5156 -0.361655,-0.3474 -0.542481,-0.8111 -0.542481,-1.3911 0,-0.6768 0.225585,-1.1871 0.676758,-1.5308 0.454751,-0.3437 1.131508,-0.5156 2.030274,-0.5156 l 1.385742,0 0,-0.097 c -5e-6,-0.4548 -0.150395,-0.8057 -0.451172,-1.0527 -0.297205,-0.2507 -0.71615,-0.376 -1.256836,-0.376 -0.343753,0 -0.678551,0.041 -1.004395,0.1235 -0.325848,0.082 -0.639161,0.2059 -0.939941,0.3706 l 0,-0.9131 c 0.361652,-0.1396 0.712563,-0.2434 1.052734,-0.3115 0.340167,-0.072 0.671384,-0.1074 0.993653,-0.1074 0.870113,0 1.520015,0.2256 1.949707,0.6767 0.429682,0.4512 0.644525,1.1351 0.644531,2.0518" />
        <path
           inkscape:connector-curvature="0"
           id="path3018"
           style="font-size:11px"
           d="m 80.224593,1021.8504 -2.175293,2.9273 2.288086,3.0883 -1.165527,0 -1.750977,-2.3632 -1.750977,2.3632 -1.165527,0 2.336426,-3.1474 -2.137695,-2.8682 1.165527,0 1.595215,2.1431 1.595215,-2.1431 1.165527,0" />
        <path
           inkscape:connector-curvature="0"
           id="path3020"
           style="font-size:11px"
           d="m 82.577132,1019.5194 0,2.9809 -0.730469,0 0,-2.9809 0.730469,0" />
        <path
           inkscape:connector-curvature="0"
           id="path3022"
           style="font-size:11px"
           d="m 84.763167,1021.8504 0.988281,0 0,6.0156 -0.988281,0 0,-6.0156 m 0,-2.3418 0.988281,0 0,1.2515 -0.988281,0 0,-1.2515" />
        <path
           inkscape:connector-curvature="0"
           id="path3024"
           style="font-size:11px"
           d="m 87.776351,1019.5086 0.993652,0 0,4.936 2.948731,-2.5942 1.262207,0 -3.19043,2.8145 3.324707,3.2011 -1.289063,0 -3.056152,-2.938 0,2.938 -0.993652,0 0,-8.3574" />
        <path
           inkscape:connector-curvature="0"
           id="path3026"
           style="font-size:11px"
           d="m 96.735335,1024.8421 c -0.798505,0 -1.351728,0.091 -1.659668,0.2739 -0.307944,0.1827 -0.461916,0.4942 -0.461914,0.9346 -2e-6,0.3509 0.114582,0.6302 0.34375,0.8379 0.232745,0.2041 0.547849,0.3061 0.945313,0.3061 0.547848,0 0.986487,-0.1933 1.315918,-0.58 0.333003,-0.3903 0.499506,-0.9077 0.499511,-1.5523 l 0,-0.2202 -0.98291,0 m 1.971191,-0.4082 0,3.4321 -0.988281,0 0,-0.9131 c -0.22559,0.3653 -0.506677,0.6356 -0.843261,0.8111 -0.336593,0.1719 -0.748376,0.2578 -1.235352,0.2578 -0.615888,0 -1.106447,-0.1719 -1.47168,-0.5156 -0.361654,-0.3474 -0.542481,-0.8111 -0.54248,-1.3911 -10e-7,-0.6768 0.225585,-1.1871 0.676758,-1.5308 0.45475,-0.3437 1.131508,-0.5156 2.030273,-0.5156 l 1.385742,0 0,-0.097 c -5e-6,-0.4548 -0.150395,-0.8057 -0.451172,-1.0527 -0.297204,-0.2507 -0.716149,-0.376 -1.256836,-0.376 -0.343752,0 -0.67855,0.041 -1.004394,0.1235 -0.325848,0.082 -0.639162,0.2059 -0.939942,0.3706 l 0,-0.9131 c 0.361653,-0.1396 0.712564,-0.2434 1.052735,-0.3115 0.340167,-0.072 0.671384,-0.1074 0.993652,-0.1074 0.870113,0 1.520015,0.2256 1.949707,0.6767 0.429682,0.4512 0.644526,1.1351 0.644531,2.0518" />
        <path
           inkscape:connector-curvature="0"
           id="path3028"
           style="font-size:11px"
           d="m 102.50389,1019.847 0.91308,0 -2.79297,9.0395 -0.913079,0 2.792969,-9.0395" />
      </g>
    </g>
  </g>
</svg>
